<svg xmlns="http://www.w3.org/2000/svg" width="418" height="418" viewBox="0 0 418 418">
  <g fill="#0D0D0D">
    <path d="M 0 209.002 L 0 418.005 209.250 417.752 L 418.500 417.500 418.752 208.750 L 419.005 -0 209.502 -0 L 0 0 0 209.002 M 0.491 209.500 C 0.491 324.450, 0.607 371.623, 0.750 314.330 C 0.893 257.036, 0.893 162.986, 0.750 105.330 C 0.607 47.673, 0.491 94.550, 0.491 209.500 M 220.910 15.974 C 213.811 23.436, 214.562 32.327, 223.009 40.818 C 230.418 48.267, 230.851 54.352, 224.267 58.494 C 220.941 60.586, 220.193 62.793, 222.149 64.749 C 224.835 67.435, 233.404 59.694, 234.559 53.536 C 235.520 48.413, 233.340 43.352, 227.375 36.864 C 222.672 31.748, 222 30.497, 222 26.854 C 222 23.282, 222.581 22.137, 226.090 18.800 C 228.563 16.448, 229.959 14.334, 229.621 13.455 C 228.603 10.801, 224.779 11.907, 220.910 15.974 M 178.826 40.255 C 166.303 47.907, 165.747 63.816, 177.662 73.579 C 180.169 75.634, 183.070 78.707, 184.107 80.407 C 187.981 86.760, 185.703 94.580, 178.979 98.011 C 174.625 100.232, 174.420 100.652, 176.408 103.272 C 179.040 106.741, 186.734 101.815, 190.110 94.500 C 194.140 85.769, 192.083 78.696, 182.963 69.926 C 179.203 66.311, 175.824 62.145, 175.453 60.670 C 173.938 54.634, 177.146 48.273, 183.892 43.937 C 185.965 42.605, 186.127 42.106, 185.107 40.200 C 183.650 37.478, 183.367 37.481, 178.826 40.255 M 134 61.722 C 127.645 64.110, 123.061 71.241, 123.022 78.800 C 122.993 84.550, 125.129 88.419, 131.968 95.002 C 136.224 99.098, 137.867 101.476, 138.398 104.308 C 139.372 109.501, 136.681 114.772, 131.781 117.269 C 128.181 119.103, 128.111 119.240, 129.610 121.527 C 130.944 123.564, 131.527 123.751, 133.829 122.879 C 140.206 120.463, 144.286 114.063, 144.286 106.475 C 144.286 100.053, 143.202 98.032, 135.368 89.847 C 129.797 84.027, 129 82.713, 129.004 79.347 C 129.008 74.582, 131.937 69.601, 135.956 67.523 C 139.362 65.762, 139.414 65.642, 137.965 62.934 C 136.885 60.916, 136.476 60.791, 134 61.722 M 237.965 86.209 C 227.841 96.819, 211.669 113.504, 202.029 123.286 C 192.388 133.068, 184.360 141.700, 184.190 142.468 C 184.019 143.236, 184.814 144.365, 185.956 144.976 C 187.750 145.937, 188.761 145.458, 193.406 141.448 C 198.069 137.422, 238.193 96.529, 255.452 78.212 L 261.378 71.923 258.876 69.421 L 256.373 66.919 237.965 86.209 M 258.020 84.284 C 249.529 88.581, 252.923 102, 262.500 102 C 265.205 102, 266.913 101.241, 269.077 99.077 C 276.624 91.530, 267.589 79.442, 258.020 84.284 M 45 229.937 L 45 372.873 41.750 373.187 C 38.790 373.472, 38.473 373.831, 38.192 377.212 L 37.884 380.924 29.192 381.256 L 20.500 381.589 29.250 381.794 L 38 382 38 386 C 38 389.905, 38.083 390, 41.500 390 L 45 390 45 399 C 45 404.333, 45.407 408, 46 408 C 46.593 408, 47 404.333, 47 399 L 47 390 50.500 390 C 53.913 390, 54 389.901, 54 386.024 L 54 382.047 71.250 381.748 L 88.500 381.450 71.310 381.225 L 54.121 381 53.810 377.250 C 53.527 373.826, 53.217 373.473, 50.250 373.187 L 47 372.873 47 229.937 C 47 135.312, 46.662 87, 46 87 C 45.338 87, 45 135.312, 45 229.937 M 286.388 88.942 C 282.546 90.564, 279.761 95.137, 280.361 98.839 C 281.039 103.014, 282.608 104.937, 286.750 106.668 C 289.488 107.813, 290.512 107.813, 293.250 106.668 C 297.418 104.926, 298.961 103.013, 299.657 98.727 C 300.680 92.419, 292.479 86.372, 286.388 88.942 M 377 145.228 C 313.384 202.815, 304 211.418, 304 212.156 C 304 212.586, 304.582 212.714, 305.293 212.441 C 306.004 212.168, 308.248 212.295, 310.279 212.723 L 313.973 213.500 289.815 235.500 C 276.528 247.600, 250.321 271.394, 231.578 288.375 L 197.500 319.251 197.198 314.125 C 197.031 311.306, 196.662 309, 196.376 309 C 196.090 309, 193.751 310.948, 191.178 313.328 C 164.865 337.676, 109.452 388.481, 97.737 399 L 93.839 402.500 96.772 405.296 L 99.706 408.092 113.603 395.291 C 137.692 373.102, 172.505 341.762, 180.299 335.250 L 184.189 332 197.095 332 L 210 332 210 340.572 L 210 349.144 227.750 348.633 C 248.381 348.039, 257.491 346.209, 270.753 339.995 C 296.728 327.822, 315.199 304.610, 323.111 274.198 C 325.461 265.164, 327.676 230.137, 326.557 219.692 L 325.851 213.095 320.303 212.798 L 314.754 212.500 338.568 191 C 379.594 153.959, 408.490 127.613, 408.766 126.997 C 408.912 126.671, 407.787 125.243, 406.266 123.822 L 403.500 121.240 377 145.228 M 285.358 122.954 C 277.687 124.783, 271.203 131.673, 269.509 139.794 C 268.314 145.523, 270.773 152.826, 275.484 157.537 C 280.560 162.613, 285.416 164.379, 292.647 163.779 C 314.640 161.956, 317.793 129.767, 296.596 123.473 C 291.214 121.874, 290.101 121.823, 285.358 122.954 M 155.070 155 C 151.648 158.850, 149.220 162.018, 149.674 162.039 C 150.128 162.061, 153.557 164.874, 157.292 168.289 L 164.085 174.500 161.114 178 L 158.144 181.500 151.297 174.750 C 147.531 171.037, 143.970 168, 143.383 168 C 142.446 168, 130.915 180.188, 130.244 181.886 C 130.104 182.242, 133.366 185.592, 137.494 189.331 C 141.623 193.069, 145 196.921, 145 197.890 C 145 199.516, 147.865 202.781, 150.687 204.371 C 151.433 204.792, 154.389 201.408, 158.639 195.270 C 162.360 189.897, 168.675 181.151, 172.673 175.836 C 176.671 170.521, 180.068 165.781, 180.221 165.302 C 180.473 164.516, 162.841 148, 161.750 148 C 161.498 148, 158.492 151.150, 155.070 155 M 70.250 162.279 C 71.213 163.072, 72 164.886, 72 166.311 C 72 167.735, 71.213 169.359, 70.250 169.920 C 67.491 171.527, 70.571 171.237, 76.662 169.317 C 79.598 168.392, 82 167.078, 82 166.398 C 82 165.717, 79.638 164.384, 76.750 163.435 C 68.368 160.679, 68.292 160.666, 70.250 162.279 M 74 166.052 C 74 168.107, 76.438 168.642, 78.846 167.116 C 79.834 166.490, 79.369 165.976, 77.096 165.183 C 74.325 164.217, 74 164.308, 74 166.052 M 189.735 167.250 C 188.681 168.050, 187.981 170.302, 187.793 173.500 L 187.500 178.500 182 179 C 176.621 179.489, 176.493 179.573, 176.182 182.815 C 175.731 187.512, 177.389 189, 183.073 189 L 187.900 189 188.200 194.730 C 188.473 199.942, 188.745 200.546, 191.210 201.409 C 193.045 202.051, 194.740 201.984, 196.460 201.200 C 198.734 200.164, 199 199.464, 199 194.521 L 199 189 203.800 189 C 209.420 189, 211 187.776, 211 183.422 C 211 179.220, 209.022 177.772, 203.801 178.155 L 199.500 178.470 199.186 173.510 C 199.013 170.783, 198.396 167.977, 197.814 167.275 C 196.460 165.644, 191.870 165.630, 189.735 167.250 M 242.830 170.027 C 235.714 173.786, 231.590 183.350, 233.842 190.868 C 236.307 199.094, 242.743 204.089, 250.960 204.153 C 265.581 204.266, 273.950 190.233, 267.441 176.517 C 263.782 168.806, 251.349 165.527, 242.830 170.027 M 71.750 179.723 C 73.691 179.964, 75 180.695, 75 181.538 C 75 182.314, 73.537 183.708, 71.750 184.636 C 69.963 185.563, 69.038 186.504, 69.695 186.726 C 70.352 186.948, 71.814 186.635, 72.945 186.030 C 74.441 185.229, 75.562 185.230, 77.064 186.034 C 79.830 187.515, 82 185.687, 82 181.878 L 82 179 75.250 179.160 C 71.537 179.248, 69.963 179.502, 71.750 179.723 M 76.364 181.493 C 76.018 182.396, 76.214 183.614, 76.800 184.200 C 78.324 185.724, 81.210 184.331, 80.812 182.265 C 80.369 179.963, 77.165 179.407, 76.364 181.493 M 71 196 C 68.780 198.220, 68.369 201.492, 70.170 202.605 C 70.966 203.097, 71.127 202.774, 70.674 201.592 C 69.523 198.595, 71.723 196, 75.413 196 C 79.254 196, 81.471 198.090, 80.712 200.995 C 80.423 202.098, 80.595 203, 81.094 203 C 82.617 203, 82.101 197.244, 80.429 195.571 C 78.245 193.387, 73.392 193.608, 71 196 M 71.750 211.723 C 74.569 212.073, 75 212.508, 75 215 C 75 217.492, 74.569 217.927, 71.750 218.277 C 69.963 218.498, 71.650 218.699, 75.500 218.722 C 79.916 218.748, 81.393 218.527, 79.500 218.122 C 77.145 217.618, 76.500 216.947, 76.500 215 C 76.500 213.053, 77.145 212.382, 79.500 211.878 C 81.393 211.473, 79.916 211.252, 75.500 211.278 C 71.650 211.301, 69.963 211.502, 71.750 211.723 M 134 217.928 C 134 241.984, 144.695 267.200, 161.957 283.845 C 171.163 292.722, 180.939 298.808, 193.717 303.618 L 200.069 306.009 210.784 296.294 C 228.401 280.324, 240.191 269.570, 266.541 245.435 C 280.314 232.821, 293.975 220.363, 296.899 217.750 L 302.216 213 218.108 213 L 134 213 134 217.928 M 338.345 216.667 C 338.693 218.775, 338.983 221.230, 338.989 222.122 C 338.997 223.251, 340.276 223.948, 343.198 224.416 C 350.445 225.574, 359.393 230.555, 364.741 236.407 C 385.193 258.785, 378.430 293.545, 351.139 306.316 C 345.206 309.092, 343.340 309.450, 332.836 309.824 L 321.141 310.241 317.936 314.229 C 314.027 319.093, 314.570 319.602, 324.692 320.550 C 335.248 321.539, 348.344 319.118, 357.918 314.408 C 384.015 301.567, 394.377 269.430, 381.507 241.247 C 378.844 235.415, 370.763 226.323, 364.260 221.840 C 359.110 218.291, 349.238 214.509, 342.606 213.545 L 337.711 212.834 338.345 216.667 M 81 228.500 C 81 229.633, 79.778 230, 76 230 C 73.250 230, 71 229.550, 71 229 C 71 228.450, 70.550 228, 70 228 C 69.450 228, 69 229.575, 69 231.500 C 69 233.425, 69.450 235, 70 235 C 70.550 235, 71 234.325, 71 233.500 C 71 231.151, 80.693 231.386, 81.311 233.750 C 81.562 234.713, 81.820 233.588, 81.884 231.250 C 81.948 228.912, 81.775 227, 81.500 227 C 81.225 227, 81 227.675, 81 228.500 M 76.039 244.084 C 73.036 245.150, 70.181 246.419, 69.696 246.904 C 68.899 247.701, 78.517 252, 81.097 252 C 83.482 252, 80.705 250.177, 76.544 249.012 C 74.065 248.318, 72.246 247.412, 72.501 246.998 C 72.757 246.584, 74.999 245.734, 77.483 245.109 C 79.967 244.483, 82 243.528, 82 242.986 C 82 242.444, 81.888 242.033, 81.750 242.073 C 81.612 242.113, 79.043 243.018, 76.039 244.084 M 69 263.500 C 69 265.425, 69.450 267, 70 267 C 70.550 267, 71 265.650, 71 264 C 71 261.667, 71.444 261, 73 261 C 74.556 261, 75 261.667, 75 264 C 75 265.650, 75.450 267, 76 267 C 76.550 267, 77 265.617, 77 263.927 C 77 259.453, 80.287 260.319, 81.118 265.011 L 81.737 268.500 81.868 264.250 L 82 260 75.500 260 L 69 260 69 263.500 M 75.300 295 C 75.300 298.025, 75.487 299.262, 75.716 297.750 C 75.945 296.238, 75.945 293.762, 75.716 292.250 C 75.487 290.738, 75.300 291.975, 75.300 295" stroke="none" fill="black" fill-rule="evenodd"/>
  </g>
  <g fill="#D10000">
    <path d="M 0 209.002 L 0 418.005 209.250 417.752 L 418.500 417.500 418.752 208.750 L 419.005 -0 209.502 -0 L 0 0 0 209.002 M 0.491 209.500 C 0.491 324.450, 0.607 371.623, 0.750 314.330 C 0.893 257.036, 0.893 162.986, 0.750 105.330 C 0.607 47.673, 0.491 94.550, 0.491 209.500 M 94 281 L 94 349 123.250 348.976 L 152.500 348.952 170 332.859 C 179.625 324.008, 189.300 315.113, 191.500 313.092 C 193.700 311.071, 196.590 308.664, 197.923 307.743 C 200.205 306.167, 200.234 306.031, 198.423 305.395 C 172.674 296.360, 155.015 281.357, 143.979 259.139 C 137.685 246.468, 134 231.251, 134 217.928 L 134 213 114 213 L 94 213 94 281 M 72 322.277 C 66.536 325.060, 69.260 331, 76 331 C 80.152 331, 83 328.987, 83 326.051 C 83 322.388, 76.298 320.088, 72 322.277 M 75.022 323.750 C 75.074 325.496, 78.815 329.232, 79.863 328.585 C 81.836 327.366, 81.099 324.988, 78.435 323.975 C 75.352 322.803, 74.993 322.779, 75.022 323.750 M 71.180 326.250 C 71.386 327.696, 72.304 328.614, 73.750 328.820 C 76.473 329.206, 76.648 327.896, 74.171 325.655 C 71.681 323.401, 70.801 323.577, 71.180 326.250 M 180.285 335.186 C 174.158 340.344, 167 347.363, 167 348.212 C 167 348.646, 176.675 349, 188.500 349 L 210 349 210 340.500 L 210 332 197.035 332 L 184.070 332 180.285 335.186 M 69 343 C 69 345.200, 69.450 347, 70 347 C 70.550 347, 71 346.325, 71 345.500 C 71 344.348, 72.278 344, 76.500 344 C 79.525 344, 82 343.587, 82 343.082 C 82 341.376, 80.792 339, 79.924 339 C 79.451 339, 79.322 339.675, 79.638 340.500 C 80.099 341.700, 79.291 342, 75.607 342 C 72.179 342, 71 341.616, 71 340.500 C 71 339.675, 70.550 339, 70 339 C 69.450 339, 69 340.800, 69 343" stroke="none" fill="black" fill-rule="evenodd"/>
  </g>
</svg>